<svg id="Ebene_1" data-name="Ebene 1" xmlns="http://www.w3.org/2000/svg" viewBox="0 0 3720.429 1581.722">
  <defs>
    <style>
      .cls-1 {
        fill: #161615;
      }
    </style>
  </defs>
  <title>75f69719-8055-4d50-a471-856d840f4586</title>
  <g>
    <path class="cls-1" d="M2127.183,1475.644c9.875,9.314,29.066,15.9,60.353,15.9,36.213,0,70.79-17.022,70.79-58.159V1312.115h-68.034l-25.265-56.5h149.239v177.769c0,76.814-59.258,115.221-131.121,115.221-24.14,0-66.4-8.778-85.592-21.412Z" transform="translate(0 0)"/>
    <path class="cls-1" d="M2561.244,1548.6c-79.008,0-136.606-36.774-136.606-120.171V1255.614h56.526v172.819c0,48.282,32.359,63.11,80.641,63.11s80.643-14.828,80.643-63.11V1255.614h56.526v172.819c0,83.4-57.6,120.171-136.606,120.171Z" transform="translate(0 0)"/>
    <path class="cls-1" d="M2820.293,1539.826V1255.614h55.965v284.212Z" transform="translate(0 0)"/>
    <path class="cls-1" d="M3187.927,1325.844c-21.946-18.119-51.575-24.7-84.495-24.7-27.433,0-57.622,14.291-57.622,30.726,0,17.022,6.584,28.53,62.012,28.53,121.268,0,139.9,41.164,139.9,87.251,0,68.036-62.522,100.956-143.726,100.956-49.405,0-97.687-23.606-128.949-60.353l40.6-41.139c17,18.094,37.873,46.624,88.348,46.624,51.55,0,87.788-16.459,87.788-46.088,0-25.8-28.53-31.26-87.788-31.26-68.034,0-117.441-22.509-117.441-84.521,0-51.551,54.331-85.594,117.441-85.594,41.139,0,80.08,7.146,121.78,35.677Z" transform="translate(0 0)"/>
    <path class="cls-1" d="M3462.339,1312.115v227.711h-56.526V1312.115h-103.15v-56.5h266.652v56.5Z" transform="translate(0 0)"/>
  </g>
  <path class="cls-1" d="M2492.449,418.755c-89.734-120.978-445.721,15.911-496.287,54.783-17.3,13.3-32.69,25.878-26.638,50.053,10.095,40.333,30.642,51.16,30.642,51.16-26.731,60.772-129.594,356.12-118.043,424.8,9.1,54.092,52.3,93.2,95.524,119.493,77.08,46.9,180.287-139.251,186.6-184.478,1.424-10.2-3.762-54.4-14.458-55.79-11.792-1.532-111.939,188.155-165.017,187.632-49.247-.485,17.035-193.768,31.167-229.924,0,0,12.33-28.659,195.7-130.565,20.353-11.311,42.648-19.192,48.014-94.325,2.91-40.752-196,80.129-196,80.129-11.753-9.306,19.774-99.549,36.245-139.561,0,0,210.612-135.443,361.345-106.664,32.567,6.218-.22,24.145-8.4,55.072C2481.764,487.182,2490.939,449.765,2492.449,418.755Z" transform="translate(0 0)"/>
  <path class="cls-1" d="M969.416,192.77c-71.265-75.193-321.365,24.21-351.654,46.13-11.153,8.058-25.025,18.093-18.78,36.095,6.2,17.873,15.9,26.572,21.445,30.29-19.458,45.453-78.315,216.441-68.124,257.388,7.087,28.458,31.663,52.741,73.041,72.171a44.19,44.19,0,0,0,19,4.267c9.275,0,19.018-2.82,29.136-8.5,43.484-24.338,80.98-93.542,83.415-115.408.65-5.933-2.765-26.48-9.331-34.373a9.842,9.842,0,0,0-6.831-3.9c-4.743-.513-8.689,4.358-27.524,31.114-22.452,31.938-60.039,85.375-82.637,86.071-2.692.037-4.2-.714-5.567-2.655C612.14,573.13,639.087,488.725,649.6,462.172c.458-.769,12.6-19.21,130.974-81.877l2.289-1.19c13.8-7.16,29.438-15.273,30.9-60.744a8.568,8.568,0,0,0-4.166-7.966c-16.418-9.816-100.355,36.077-132.732,54.536.018-11.336,9.862-44.72,22.351-74.7,14.495-8.552,146.934-84.734,245.219-72.666a34.632,34.632,0,0,1,6.034,1.154c-.321,1.41-2.61,4.725-4.313,7.179-3.534,5.128-7.939,11.482-9.88,19.155L933.9,254.43l8.836-3.937c24.136-10.768,27.891-38.75,27.973-54.481l.009-1.886Z" transform="translate(0 0)"/>
  <path class="cls-1" d="M793.307,615.255" transform="translate(0 0)"/>
  <path class="cls-1" d="M510.889,791.228" transform="translate(0 0)"/>
  <path class="cls-1" d="M736.363,642.788" transform="translate(0 0)"/>
  <path class="cls-1" d="M1868.895,255.641" transform="translate(0 0)"/>
  <path class="cls-1" d="M440.427,833.376" transform="translate(0 0)"/>
  <path class="cls-1" d="M376.706,868.738" transform="translate(0 0)"/>
  <path class="cls-1" d="M906.65,1552.386l2.151-1.5c-.188-.182-.355-.384-.548-.559Z" transform="translate(0 0)"/>
  <path class="cls-1" d="M292.393,932.269" transform="translate(0 0)"/>
  <path class="cls-1" d="M1557.842,495.943c10.49-.353,102.13,26.156,74.713,56.094-4.135,4.515-67.6,1.7-80.47,4.643-65.2,14.886-124.128,28.145-181.591,63.574-25.1,15.473-40.366,22.713-62.371-1.894-31.382-35.1-.645-48.421,31.975-64.45C1407.461,520.807,1483.035,501.255,1557.842,495.943Z" transform="translate(0 0)"/>
  <path class="cls-1" d="M736.71,643.406c14.707-16.5,35.684-23.529,56.6-28.151C781.7,628.609,756.016,654.5,736.71,643.406Z" transform="translate(0 0)"/>
  <path class="cls-1" d="M3719.049,255.641c-19.3-102.578-90.568-144.813-179.632-188.249C3457,27.2,2932.275-174.366,1260.564,394.765c0,0,9.54-21.836-13.923-45.061-11.752-11.634-51.94-33.871-70.229-30.577-37.1,6.683-47.491,102.841-76.216,128.351,0,0-272.6,129.391-306.33,167.2,37.1,1.369,75.625-26.707,108.292-42.5,28.087-13.584,55.995-26.165,83.634-40.164,29.6-14.993,64.39-30.5,96.059-40.567,12.024-3.824,36.639-10.533,15.925,9.125-11.767,11.167-35.637,14.438-49.966,22.075-9.224,4.917-23.133,22.569-29.027,24.958-10.367,4.2-21,1.061-31.879,3.006-37.31,6.67-78.029,36.584-112.136,52.67-30.154,14.22-55.961,33.038-84.551,47.039-7.664,3.752-106.334,36.286-96.395,46.542,12.748,13.151,20.821,2.989-5.821,12.347-18.914,6.644-26.344.238-45.765,12.208-14.908,9.189-27.034,17.565-42.583,25.875-6.13,3.274-118.665,58.993-118.245,60.614-4.063-15.566,23.347-12.564,29.483-16.677,3.63-2.434,4.036-9.382,8.311-12.022,24.986-15.433,51.678-29.117,76.549-44.663,25.323-15.829,50.069-32.4,75.78-47.847,16.913-10.16,57.441-23.42,64.537-43.2C314.85,833.376,38.107,1092.661,8.592,1134.582c-18.524,26.31-5.624,30.566,24.59,49.195,73.157,45.105,244.213-234.256,1027.266-598.246,0,0-177.511,661.024-194.257,752.818C852.938,1411,813.4,1550.331,878.9,1581.427c32.493,15.426,174.034-578.606,294.568-962.41l32.6-85C2820.293-17.849,3338.226,84.845,3453.278,111.526c99.4,23.052,190.535,84.987,185.006,146.653-8.366,93.312-81.6,159.76-150.543,211.057-234.594,174.55-393.22,230.931-377.721,261.278C3435.99,634.4,3743.63,408.72,3719.049,255.641ZM293.2,931.926,339.5,905.065c-6.974,9.849-8.242-16.159,4.34-11.525A13.2,13.2,0,0,1,339.5,905.065Zm39.532-37.908c-2.2,1.857-11.39,29.083-19.431,16.649-5.592-8.664,17.434-15.855,22.96-19.345Q389.272,865.839,379.037,867.157Zm77.178-39.877c-3.685,4.4-30.105,14.835-30.9,14.145C423.642,839.962,466.708,814.706,456.215,827.28ZM907.9,1435.862m59-351.635c-13.565,20.883-32.2,198.579-47.836,199.044,2.532-.069,22.565-107.08,24.223-114.459,5.007-22.293,8.38-45.987,15.358-67.751C959.225,1099.256,966.9,1071.144,966.9,1084.228Zm700.074-784.852c-23.979.3-49.178,17.8-71.874,24.573-27.034,8.062-51.181,15.748-77.885,21.046-57.681,11.445-111.41,40.462-166.124,58.65-9.674,3.216-67.364,22.9-70.648,17.665-8.161-13.016,72.531-40.183,77.341-41.93,63.025-22.9,126.191-40.571,190.039-59.77,131.276-39.478,264.779-72.021,397.194-107.446,3.82,3.3-29.044,14.574-30.621,15.131C1833.6,255.855,1749.531,276.727,1666.976,299.376Z" transform="translate(0 0)"/>
  <path class="cls-1" d="M1827.688,473.809c-77.814,7.959-52.809,134.058-36.11,118,13.839-13.307,53.987-85.651,72.985-61.861,68.122,85.3-110.858,627.988-147.075,699.352-20,39.414-19.012.884-17.423-23.137,3.5-52.968,41.787-337.279-9.087-390.726-30.813-32.372-49.829-48.641-64.7-12.943-28.649,68.774-49.58,117.02-98.83,237.6,7.058-69.324,88.088-301.3,86.5-349.576-1.53-46.47-71.209-92.4-82.981-56.116-11.309,34.859-130.675,476.725-111.454,531.951,10.946,31.452,53.979,51.209,85.879,47.605,34.032-3.846,95.913-183.96,122.157-244.68,4.227,85.207-41.334,278.879,63.153,322.876,61.126,25.738,66.092-10.484,93.337-58.153C1942.59,956.586,2054.087,450.653,1827.688,473.809Z" transform="translate(0 0)"/>
  <path class="cls-1" d="M3689.256,929.41c-17.672,67.155-185.994,156.306-362.11,199.953-177.348,43.953-589.836,83.372-850.593-306.864-30.65-45.869-38.637,123.361-35.692,238.454.526,20.556-23.686,18.041-50.817,13.354-91.8-15.859-31.9-261.685-16.769-317.107,0,0-24.782-25.759-28.683-42.346-3.949-16.8-7.549-42.924,10.14-76.59,16.236-30.9,55.919,9.7,55.919,9.7,31.276-113.975,20.315-245.314,20.315-245.314,63.943-19.056,67.086,41.034,72.98,31.06,66.029-111.741,200.625-204.373,278.875-199.788,33.511,1.963,111.42,58.453,91.9,122.754-94.811,312.368-338.909,414.8-338.909,414.8,255.139,438.631,756.6,366.156,1033.311,219.048C3640.3,952.683,3710.463,881.105,3689.256,929.41ZM2495.481,696.066c35.491-5.039,209.939-144.688,286.827-318.586,12.515-28.305,39.331-94.611-11.986-73.834C2635.158,358.37,2468.474,676.466,2495.481,696.066Z" transform="translate(0 0)"/>
  <path class="cls-1" d="M1065.918,1304.246c-26.109-169.437,113.927-707.178,303.141-625.983,165.037,70.821,37.031,258.473,37.031,258.473,103.588,143.228-66.738,460.454-156.521,470.333C1117.774,1421.571,1082.119,1397.773,1065.918,1304.246Zm121.879,77.165c84.349,2.033,210.616-320.373,180.851-386.157,0,0-32.971,29.927-42.93,13.078-10.051-17,24.9-68.209,21.295-91.917-3.656-24.046-36.927-55.089-34.386-76.96,27.281,4.273,59.33,46.951,59.33,46.951,16.575-13.843,48.274-150.937,15.471-167C1256.2,655.154,1080.459,1378.824,1187.8,1381.411Z" transform="translate(0 0)"/>
  <path class="cls-1" d="M3210.261,206.677c-72.324-74.029-149.555-25.381-187.2,4.493-68.721,54.535-151.217,150.612-194.329,227.565-44.813,79.994-61.189,158.537,2.355,232.975,53.81,63.035,150.265,91.446,185.01,139.473,44.557,61.59-72.685,108.081-194.158,106.458-53.976-.721-83.187-36.045-79.353-102.049,1.847-31.8-47.989-61.707-58.179-37.931-17.424,40.657-13.508,120.7,62.48,158.3,70.692,34.977,233.292,38.841,333.67-38.861,33.665-26.06,43.354-50.848,15.6-79.492-55.51-57.292-98.561-76.077-157.818-117.918-72.318-51.064-68.131-134.229-29.728-212.466,17.136-34.91,107.045-169.418,157.267-175.37,14.762-1.75-67.06,84.9-69.273,103.442-5.166,43.307,58.375,15.832,80.255,3.285C3137.875,383.6,3238.889,235.971,3210.261,206.677Z" transform="translate(0 0)"/>
  <path class="cls-1" d="M594.143,401.068c-1.938-.082,9.216-143.181-133-192.833,0,0,17.633-30.6,5.236-51.384-5.8-9.72-40.322-32.564-52.254-29.82-14.089,3.24-33.885,65.622-33.885,65.622C150.693,178.95,27.568,325.937,17.129,379.01c-12.275,62.407,40.293,92.306,48.556,84.243.973-.947-7.281-38.36,1.971-60.959C97.613,329.112,278.59,231.446,359.532,241.029c0,0-102.381,256.908-5.955,323.79,31.146,21.6,28.56,12.785,27.469-13.675C374.162,384.089,435.82,250.875,456.2,244.607c30.98-9.527,60.877,45.21,68.991,66.006,57.133,146.407-94.649,298.832-196.169,383.324-30.408,25.306-69.281,53.928-107.721,65.258-36.479,10.753-47.659-3.861-51.932-38.5-4.054-32.887,7.993-130.475,58.825-158.4-29.353-32.218-100.644,20.527-108.654,125.8C111.6,792.418,231.277,814.477,310.128,773.919c69.363-35.678,151.166-103.707,200.761-162.953a428.686,428.686,0,0,0,42.6-61.322c8.072-60.169,37.173-106.319,49.023-163.971C599.254,394.9,596.277,401.157,594.143,401.068Z" transform="translate(0 0)"/>
</svg>
