<?xml version="1.0" encoding="utf-8"?>
<!-- Generator: Adobe Illustrator 19.2.1, SVG Export Plug-In . SVG Version: 6.00 Build 0)  -->
<svg version="1.1" id="Layer_1" xmlns="http://www.w3.org/2000/svg" xmlns:xlink="http://www.w3.org/1999/xlink" x="0px" y="0px"
	 viewBox="0 0 100 100" style="enable-background:new 0 0 100 100;" xml:space="preserve">
<style type="text/css">
	.st0{fill:#FFFFFF;}
</style>
<g>
	<path class="st0" d="M43.7,64.2c0-4.2,0-8.5,0-12.7c0-1.3-0.2-2-1.8-2c-4,0-4-0.1-4-4.1c0-0.6,0-1.3,0-1.9c0-4.2,0-4.2,4.2-4.4
		c1.3,0,1.6-0.5,1.6-1.7c0-2.5-0.2-5,0.2-7.5c1-5.8,4.6-9.3,10.4-9.7c3-0.2,6.1-0.1,9.2-0.1c1.3,0,1.6,0.6,1.6,1.7
		c-0.1,2.3-0.1,4.6,0,6.8c0,1.3-0.4,1.7-1.6,1.6c-1.6-0.1-3.3,0-4.9,0c-1.1,0-2.1,0.4-2.4,1.5c-0.6,2.2-0.2,4.4-0.2,6.6
		c0,0.9,0.9,0.8,1.5,0.8c2,0,4.1,0.1,6.1,0c1.2,0,1.8,0.2,1.6,1.6c-0.3,2.5-0.6,5-0.8,7.5c-0.1,1.2-0.6,1.4-1.7,1.4
		c-1.6-0.1-3.1,0.1-4.7,0c-1.7-0.1-2.1,0.5-2.1,2.1c0.1,8.2,0,16.5,0.1,24.7c0,1.9-0.4,2.6-2.4,2.5c-2.6-0.2-5.2-0.1-7.8,0
		c-1.5,0.1-2.1-0.4-2-2C43.8,72.7,43.7,68.4,43.7,64.2z"/>
</g>
</svg>
