<?xml version="1.0" encoding="utf-8"?>
<!-- Generator: Adobe Illustrator 20.0.0, SVG Export Plug-In . SVG Version: 6.00 Build 0)  -->
<svg version="1.1" id="Layer_1" xmlns="http://www.w3.org/2000/svg" xmlns:xlink="http://www.w3.org/1999/xlink" x="0px" y="0px"
	 viewBox="0 0 200 200" style="enable-background:new 0 0 200 200;" xml:space="preserve">
<style type="text/css">
	.st0{fill:#EF4123;}
</style>
<g>
	<path class="st0" d="M83.3,130.5c0-8.9-0.1-17.9,0.1-26.8c0-2.8-0.4-4.1-3.7-4.1c-8.5-0.1-8.5-0.2-8.5-8.6c0-1.3,0-2.6,0-4
		c0-8.8,0-8.9,8.9-9.3c2.7-0.1,3.3-1,3.3-3.5c0-5.3-0.5-10.6,0.4-15.8c2.1-12.1,9.7-19.5,22-20.5c6.4-0.5,12.9-0.1,19.3-0.2
		c2.7-0.1,3.3,1.2,3.3,3.6c-0.1,4.8-0.2,9.6,0,14.4c0.1,2.6-0.9,3.5-3.5,3.4c-3.5-0.2-6.9,0-10.4,0c-2.4,0-4.4,0.9-5,3.2
		c-1.2,4.5-0.5,9.2-0.5,13.8c0,1.9,1.8,1.6,3.1,1.6c4.3,0,8.6,0.1,12.9,0c2.4-0.1,3.7,0.4,3.3,3.3c-0.7,5.2-1.3,10.5-1.7,15.8
		c-0.2,2.4-1.3,3-3.5,3c-3.3-0.1-6.6,0.2-9.9-0.1c-3.5-0.3-4.4,1.1-4.4,4.5c0.2,17.4,0,34.7,0.2,52.1c0,4-0.9,5.6-5.1,5.3
		c-5.4-0.4-10.9-0.3-16.4,0c-3.2,0.1-4.3-0.8-4.2-4.1C83.4,148.3,83.3,139.4,83.3,130.5z"/>
</g>
</svg>
