<?xml version="1.0" encoding="utf-8"?>
<!-- Generator: Adobe Illustrator 19.2.1, SVG Export Plug-In . SVG Version: 6.00 Build 0)  -->
<svg version="1.1" id="Layer_1" xmlns="http://www.w3.org/2000/svg" xmlns:xlink="http://www.w3.org/1999/xlink" x="0px" y="0px"
	 viewBox="0 0 100 100" style="enable-background:new 0 0 100 100;" xml:space="preserve">
<style type="text/css">
	.st0{fill:#FFFFFF;}
</style>
<path class="st0" d="M83.1,32.2c-0.9,2.7-4.2,1.1-6.1,1.5c-3.7,0.8-2.4,5.8-4.1,8c-1,1.2-1.4,1.9-3.2,1.3c-2.9-1-1.2-4.8-2.1-7.3
	c-1.5-4.3-6.7-0.9-9.3-4.3c-0.1-0.2-0.2-0.4-0.1-0.6c0,0,0.4-1.6,0.4-1.6c1.1-4,4.4-1.2,6.9-2.1c4.1-1.4,0.5-9,4.4-9.2
	c3.6-0.2,3.2,4.5,4,6.9c1.8,5.6,5.8-0.1,8.6,3.8C83.3,29.5,83.4,31.3,83.1,32.2z"/>
<path class="st0" d="M48,49.3c-0.4-0.5-0.8-0.9-1-1.5c-0.7-2.6,3.6-6.4,5-8.1c3-3.6,3.8-7,2.3-11.7c-0.6-1.9-4.1-5.5-1-5.8
	c1.3-0.1,1.9-1.2,1.9-2.2c-0.1-1-0.8-2.1-2.1-2.1c0,0-2.2,0-2.2,0c-6.7,0-14.4-0.2-20.2,3.6c-6,3.9-8.9,12.1-5.2,18.6
	c2.1,3.7,6.2,6.2,10.4,6.4c0.8,0,1.8,0,2.4,0.5c1,0.7,1.3,5.2,1.8,6.6c-1.7,0.8-3.6,0.8-5.5,1.1c-4.5,0.5-9.1,2.2-12.1,5.7
	c-3,3.4-3.9,8.9-1.3,12.6c1.2,1.8,3.1,3,5,4c6.7,3.4,17.1,4.4,23.7,0c2.9-2,5.9-4.8,7.4-8.1c0-0.1,0-0.1,0.1-0.2
	C60.8,60.3,52.8,54.7,48,49.3z M37,42.5c-4.9-3.2-7.1-12.3-4.1-17.7c0,0,0-0.1,0.1-0.1c0.2-0.8,0.6-1.2,1.2-1.3
	c0.1,0,0.2-0.1,0.3-0.1c2.3-1.6,4.4-1,5.8-0.3c3.6,1.9,6.2,7.1,6.2,12c0,2.9-0.3,5.8-2.1,7.4C42.4,43.9,38.8,43.7,37,42.5z
	 M50.4,69.9l-0.3,0.8c-1.4,2.6-3.8,4-7.7,4.5c-0.1,0-0.2,0.1-0.3,0.1c-0.9,0.6-1.4,0.4-2.6,0C39,75,38.4,75,37.8,75
	c-0.2,0-0.4,0-0.6,0c-2.1-0.1-4-0.8-5.6-1.8l-1.1-0.8c-2.4-1.5-3.4-3.5-3.1-6c0-0.1,0-0.2,0-0.2c-0.4-1.8,0.2-3.3,2-5
	c2.5-2.3,5.8-3.4,9.1-3.4c2.9,0,5.8,0.9,8.1,2.7c1.9,1.3,3.9,3.1,4.1,6.1c0,0,0,0,0,0c0,0,0,0,0,0.1c0,0,0,0,0,0
	C50.9,67.8,51,68.8,50.4,69.9z"/>
</svg>
