<?xml version="1.0" encoding="utf-8"?>
<!-- Generator: Adobe Illustrator 20.0.0, SVG Export Plug-In . SVG Version: 6.00 Build 0)  -->
<svg version="1.1" id="Layer_1" xmlns="http://www.w3.org/2000/svg" xmlns:xlink="http://www.w3.org/1999/xlink" x="0px" y="0px"
	 viewBox="0 0 200 200" style="enable-background:new 0 0 200 200;" xml:space="preserve">
<path d="M44.8,99.9c0-10.5-0.1-21.1,0.1-31.6c0.3-14.6,7.7-23,22.4-23.3c21.6-0.4,43.3-0.4,65,0c14.6,0.2,22.7,8.1,22.9,22.8
	c0.3,21.6,0.3,43.3-0.1,65c-0.3,14.7-8.5,22.4-23.2,22.6c-21.1,0.2-42.2,0.3-63.3-0.1c-15.8-0.3-23.3-7.9-23.8-23.6
	C44.5,121,44.7,110.5,44.8,99.9z M56.5,89.6c-0.4,4.1-0.9,7.3-0.9,10.6c0.4,48.8-5.2,44.5,42.8,44.3c51-0.2,51.8-1.3,44.4-54.9
	c-4.1,0-8.4,0-12.6,0c0.2,23.8-5.9,36.2-22.3,39c-30.5,5.3-38.5-13.2-38.2-39.7C65.4,89.1,61.2,89.3,56.5,89.6z M100.2,81.3
	c-11.9,0.9-18.8,6.9-18.7,19c0.2,12,7.2,18.3,19.1,18.1c11.2-0.2,17.4-6.7,17.7-17.8C118.6,88.7,111.8,82.5,100.2,81.3z M125.2,74.3
	c5.8,0,10.8,0,16.7,0c-0.4-5.9-0.8-10.5-1.1-15.2c-5.7,0-10.3,0-15.6,0C125.2,64.6,125.2,69.2,125.2,74.3z"/>
</svg>
