<?xml version="1.0" encoding="iso-8859-1"?>
<!-- Generator: Adobe Illustrator 22.1.0, SVG Export Plug-In . SVG Version: 6.00 Build 0)  -->
<svg version="1.1" id="Ebene_1" xmlns="http://www.w3.org/2000/svg" xmlns:xlink="http://www.w3.org/1999/xlink" x="0px" y="0px"
	 width="78.368px" height="28.885px" viewBox="0 0 78.368 28.885" enable-background="new 0 0 78.368 28.885" xml:space="preserve">
<path d="M27.649,4.377c-3.523,0-5.79,1.014-8.088,3.559c-1.031-2.398-3.185-3.559-6.231-3.559c-3.277,0-5.422,1.148-7.002,3.561
	l0-2.799H0v23.746h6.553v-14.52c0-2.693,1.683-4.579,4.174-4.579c2.424,0,3.883,1.526,3.883,4.107v14.992h6.307v-14.61
	c0-2.671,1.638-4.489,4.129-4.489c2.536,0,3.928,1.526,3.928,4.309v14.79h6.553V12.457C35.527,7.609,32.362,4.377,27.649,4.377"/>
<path d="M52.13,4.377c-3.658,0-6.216,1.416-7.698,3.561l0-7.938h-6.441v28.885h6.553V15.15c0-3.164,1.818-5.341,4.915-5.341
	c2.985,0,4.511,1.885,4.511,4.982v14.094h6.553V13.4C60.524,7.833,57.472,4.377,52.13,4.377"/>
<path d="M74.868,22.107c-1.975,0-3.501,1.482-3.501,3.389c0,1.885,1.526,3.389,3.501,3.389c1.975,0,3.501-1.504,3.501-3.389
	C78.368,23.589,76.843,22.107,74.868,22.107"/>
<rect x="62.969" y="4.826" width="6.553" height="24.058"/>
</svg>
